ffmpeg started on 2016-12-07 at 15:24:15
Report written to "Output/x264/results/ffmpeg/crowd_run_2160p50slow12000k.log"
Command line:
Tools/ffmpeg/ffmpeg -benchmark -y -i Input/y4m/crowd_run_2160p50.y4m -c:v libx264 -preset slow -b:v 12000k -an Output/x264/encoded/crowd_run_2160p50slow12000k.mkv
ffmpeg version N-82227-gdb23fde Copyright (c) 2000-2016 the FFmpeg developers
  built with gcc 5.4.0 (Ubuntu 5.4.0-6ubuntu1~16.04.2) 20160609
  configuration: --prefix=/home/jaroslav/ffmpeg_build --pkg-config-flags=--static --extra-cflags=-I/home/jaroslav/ffmpeg_build/include --extra-ldflags=-L/home/jaroslav/ffmpeg_build/lib --bindir=/home/jaroslav/bin --enable-gpl --enable-libass --enable-libfdk-aac --enable-libfreetype --enable-libmp3lame --enable-libopus --enable-libtheora --enable-libvorbis --enable-libvpx --enable-libx264 --enable-libx265 --enable-nvenc --enable-libmfx --enable-libxvid --enable-libgsm --enable-libopencore-amrnb --enable-version3 --enable-nonfree
  libavutil      55. 35.100 / 55. 35.100
  libavcodec     57. 66.101 / 57. 66.101
  libavformat    57. 57.100 / 57. 57.100
  libavdevice    57.  2.100 / 57.  2.100
  libavfilter     6. 66.100 /  6. 66.100
  libswscale      4.  3.100 /  4.  3.100
  libswresample   2.  4.100 /  2.  4.100
  libpostproc    54.  2.100 / 54.  2.100
Input #0, yuv4mpegpipe, from 'Input/y4m/crowd_run_2160p50.y4m':
  Duration: 00:00:10.00, start: 0.000000, bitrate: 4976642 kb/s
    Stream #0:0: Video: rawvideo (I420 / 0x30323449), yuv420p(progressive), 3840x2160, SAR 1:1 DAR 16:9, 50 fps, 50 tbr, 50 tbn, 50 tbc
[libx264 @ 0x45d71c0] using SAR=1/1
[libx264 @ 0x45d71c0] using cpu capabilities: MMX2 SSE2Fast SSSE3 SSE4.2 AVX FMA3 AVX2 LZCNT BMI2
[libx264 @ 0x45d71c0] profile High, level 5.2
[libx264 @ 0x45d71c0] 264 - core 148 - H.264/MPEG-4 AVC codec - Copyleft 2003-2016 - http://www.videolan.org/x264.html - options: cabac=1 ref=5 deblock=1:0:0 analyse=0x3:0x113 me=hex subme=8 psy=1 psy_rd=1.00:0.00 mixed_ref=1 me_range=16 chroma_me=1 trellis=2 8x8dct=1 cqm=0 deadzone=21,11 fast_pskip=1 chroma_qp_offset=-2 threads=6 lookahead_threads=1 sliced_threads=0 nr=0 decimate=1 interlaced=0 bluray_compat=0 constrained_intra=0 bframes=3 b_pyramid=2 b_adapt=1 b_bias=0 direct=3 weightb=1 open_gop=0 weightp=2 keyint=250 keyint_min=25 scenecut=40 intra_refresh=0 rc_lookahead=50 rc=abr mbtree=1 bitrate=12000 ratetol=1.0 qcomp=0.60 qpmin=0 qpmax=69 qpstep=4 ip_ratio=1.40 aq=1:1.00
Output #0, matroska, to 'Output/x264/encoded/crowd_run_2160p50slow12000k.mkv':
  Metadata:
    encoder         : Lavf57.57.100
    Stream #0:0: Video: h264 (libx264) (H264 / 0x34363248), yuv420p, 3840x2160 [SAR 1:1 DAR 16:9], q=-1--1, 12000 kb/s, 50 fps, 1k tbn, 50 tbc
    Metadata:
      encoder         : Lavc57.66.101 libx264
    Side data:
      cpb: bitrate max/min/avg: 0/0/12000000 buffer size: 0 vbv_delay: -1
Stream mapping:
  Stream #0:0 -> #0:0 (rawvideo (native) -> h264 (libx264))
Press [q] to stop, [?] for help
frame=    9 fps=0.0 q=0.0 size=       0kB time=00:00:00.00 bitrate=N/A speed=   0x    frame=   26 fps= 25 q=0.0 size=       0kB time=00:00:00.00 bitrate=N/A speed=   0x    frame=   39 fps= 25 q=0.0 size=       0kB time=00:00:00.00 bitrate=N/A speed=   0x    frame=   50 fps= 24 q=0.0 size=       0kB time=00:00:00.00 bitrate=N/A speed=   0x    frame=   57 fps= 11 q=0.0 size=       0kB time=00:00:00.00 bitrate=N/A speed=   0x    frame=   62 fps=9.9 q=33.0 size=       1kB time=-00:00:00.01 bitrate=N/A speed=N/A    frame=   64 fps=9.4 q=33.0 size=       1kB time=00:00:00.02 bitrate= 279.6kbits/s speed=0.00308x    frame=   67 fps=9.0 q=36.0 size=       1kB time=00:00:00.08 bitrate=  72.5kbits/s speed=0.0109x    frame=   71 fps=8.8 q=44.0 size=       1kB time=00:00:00.16 bitrate=  36.5kbits/s speed=0.02x    frame=   76 fps=8.7 q=49.0 size=       1kB time=00:00:00.26 bitrate=  22.5kbits/s speed=0.0298x    frame=   83 fps=8.6 q=48.0 size=       1kB time=00:00:00.40 bitrate=  14.6kbits/s speed=0.0415x    frame=   90 fps=8.8 q=48.0 size=       1kB time=00:00:00.54 bitrate=  10.9kbits/s speed=0.0532x    frame=   93 fps=8.7 q=47.0 size=       1kB time=00:00:00.60 bitrate=   9.8kbits/s speed=0.0561x    frame=   99 fps=8.6 q=47.0 size=       1kB time=00:00:00.72 bitrate=   8.1kbits/s speed=0.0627x    frame=  104 fps=8.6 q=47.0 size=       1kB time=00:00:00.82 bitrate=   7.2kbits/s speed=0.0678x    frame=  110 fps=8.7 q=47.0 size=       1kB time=00:00:00.94 bitrate=   6.2kbits/s speed=0.0745x    frame=  112 fps=8.5 q=46.0 size=       1kB time=00:00:00.98 bitrate=   6.0kbits/s speed=0.0743x    frame=  119 fps=8.5 q=46.0 size=       1kB time=00:00:01.12 bitrate=   5.2kbits/s speed=0.0797x    frame=  123 fps=8.4 q=46.0 size=       1kB time=00:00:01.20 bitrate=   4.9kbits/s speed=0.0823x    frame=  127 fps=8.4 q=46.0 size=       1kB time=00:00:01.28 bitrate=   4.6kbits/s speed=0.0849x    frame=  131 fps=8.3 q=46.0 size=       1kB time=00:00:01.36 bitrate=   4.3kbits/s speed=0.0865x    frame=  138 fps=8.5 q=45.0 size=       1kB time=00:00:01.50 bitrate=   3.9kbits/s speed=0.0921x    frame=  140 fps=8.3 q=45.0 size=       1kB time=00:00:01.54 bitrate=   3.8kbits/s speed=0.0916x    frame=  146 fps=8.4 q=45.0 size=       1kB time=00:00:01.66 bitrate=   3.5kbits/s speed=0.0958x    frame=  148 fps=8.3 q=45.0 size=       1kB time=00:00:01.70 bitrate=   3.5kbits/s speed=0.0953x    frame=  153 fps=8.3 q=45.0 size=       1kB time=00:00:01.80 bitrate=   3.3kbits/s speed=0.0981x    frame=  155 fps=8.2 q=45.0 size=       1kB time=00:00:01.84 bitrate=   3.2kbits/s speed=0.0975x    frame=  162 fps=8.3 q=45.0 size=       1kB time=00:00:01.98 bitrate=   3.0kbits/s speed=0.102x    frame=  164 fps=8.2 q=45.0 size=       1kB time=00:00:02.02 bitrate=   2.9kbits/s speed=0.101x    frame=  169 fps=8.2 q=45.0 size=       1kB time=00:00:02.12 bitrate=   2.8kbits/s speed=0.104x    frame=  172 fps=8.2 q=45.0 size=       1kB time=00:00:02.18 bitrate=   2.7kbits/s speed=0.104x    frame=  176 fps=8.2 q=45.0 size=       1kB time=00:00:02.26 bitrate=   2.6kbits/s speed=0.105x    frame=  180 fps=8.1 q=45.0 size=       1kB time=00:00:02.34 bitrate=   2.5kbits/s speed=0.106x    frame=  184 fps=8.1 q=44.0 size=       1kB time=00:00:02.42 bitrate=   2.4kbits/s speed=0.107x    frame=  188 fps=8.1 q=44.0 size=       1kB time=00:00:02.50 bitrate=   2.3kbits/s speed=0.108x    frame=  192 fps=8.1 q=44.0 size=       1kB time=00:00:02.58 bitrate=   2.3kbits/s speed=0.109x    frame=  196 fps=8.1 q=44.0 size=       1kB time=00:00:02.66 bitrate=   2.2kbits/s speed=0.11x    frame=  199 fps=8.0 q=44.0 size=       1kB time=00:00:02.72 bitrate=   2.2kbits/s speed=0.11x    frame=  203 fps=8.0 q=44.0 size=       1kB time=00:00:02.80 bitrate=   2.1kbits/s speed=0.111x    frame=  207 fps=8.0 q=44.0 size=       1kB time=00:00:02.88 bitrate=   2.0kbits/s speed=0.111x    frame=  214 fps=8.0 q=44.0 size=       1kB time=00:00:03.02 bitrate=   1.9kbits/s speed=0.113x    frame=  216 fps=7.9 q=44.0 size=       1kB time=00:00:03.06 bitrate=   1.9kbits/s speed=0.112x    frame=  222 fps=8.0 q=44.0 size=       1kB time=00:00:03.18 bitrate=   1.8kbits/s speed=0.114x    frame=  224 fps=7.9 q=44.0 size=    5124kB time=00:00:03.22 bitrate=13032.1kbits/s speed=0.113x    frame=  230 fps=7.9 q=44.0 size=    5124kB time=00:00:03.34 bitrate=12564.0kbits/s speed=0.115x    frame=  233 fps=7.9 q=44.0 size=    5124kB time=00:00:03.40 bitrate=12342.3kbits/s speed=0.115x    frame=  239 fps=7.8 q=44.0 size=    5124kB time=00:00:03.52 bitrate=11921.7kbits/s speed=0.115x    frame=  246 fps=7.9 q=44.0 size=    5124kB time=00:00:03.66 bitrate=11465.8kbits/s speed=0.117x    frame=  249 fps=7.8 q=44.0 size=    5124kB time=00:00:03.72 bitrate=11280.9kbits/s speed=0.117x    frame=  254 fps=7.9 q=44.0 size=    5124kB time=00:00:03.82 bitrate=10985.7kbits/s speed=0.118x    frame=  255 fps=7.8 q=44.0 size=    5124kB time=00:00:03.84 bitrate=10928.5kbits/s speed=0.117x    frame=  261 fps=7.8 q=44.0 size=    5124kB time=00:00:03.96 bitrate=10597.4kbits/s speed=0.119x    frame=  263 fps=7.7 q=44.0 size=    5124kB time=00:00:04.00 bitrate=10491.5kbits/s speed=0.118x    frame=  270 fps=7.8 q=44.0 size=    5124kB time=00:00:04.14 bitrate=10136.8kbits/s speed=0.12x    frame=  271 fps=7.7 q=44.0 size=    5124kB time=00:00:04.16 bitrate=10088.0kbits/s speed=0.118x    frame=  277 fps=7.8 q=44.0 size=    5124kB time=00:00:04.28 bitrate=9805.3kbits/s speed=0.12x    frame=  279 fps=7.7 q=44.0 size=    5124kB time=00:00:04.32 bitrate=9714.5kbits/s speed=0.119x    frame=  285 fps=7.7 q=44.0 size=    5124kB time=00:00:04.44 bitrate=9452.0kbits/s speed=0.121x    frame=  287 fps=7.7 q=44.0 size=    5124kB time=00:00:04.48 bitrate=9367.6kbits/s speed=0.12x    frame=  292 fps=7.7 q=44.0 size=    5124kB time=00:00:04.58 bitrate=9163.1kbits/s speed=0.121x    frame=  295 fps=7.6 q=44.0 size=    5124kB time=00:00:04.64 bitrate=9044.7kbits/s speed=0.12x    frame=  299 fps=7.6 q=44.0 size=    5124kB time=00:00:04.72 bitrate=8891.4kbits/s speed=0.121x    frame=  303 fps=7.6 q=44.0 size=    5124kB time=00:00:04.80 bitrate=8743.2kbits/s speed=0.12x    frame=  306 fps=7.5 q=41.0 size=    5124kB time=00:00:04.86 bitrate=8635.3kbits/s speed=0.118x    frame=  312 fps=7.5 q=44.0 size=    7546kB time=00:00:04.98 bitrate=12411.2kbits/s speed=0.12x    frame=  317 fps=7.5 q=44.0 size=    7546kB time=00:00:05.08 bitrate=12167.0kbits/s speed=0.12x    frame=  321 fps=7.5 q=44.0 size=    7546kB time=00:00:05.16 bitrate=11978.4kbits/s speed=0.12x    frame=  325 fps=7.5 q=44.0 size=    7546kB time=00:00:05.24 bitrate=11795.5kbits/s speed=0.121x    frame=  329 fps=7.5 q=44.0 size=    7546kB time=00:00:05.32 bitrate=11618.2kbits/s speed=0.121x    frame=  334 fps=7.5 q=44.0 size=    7546kB time=00:00:05.42 bitrate=11403.9kbits/s speed=0.122x    frame=  337 fps=7.5 q=44.0 size=    7546kB time=00:00:05.48 bitrate=11279.0kbits/s speed=0.121x    frame=  342 fps=7.5 q=44.0 size=    7546kB time=00:00:05.58 bitrate=11076.9kbits/s speed=0.122x    frame=  345 fps=7.5 q=44.0 size=    7546kB time=00:00:05.64 bitrate=10959.1kbits/s speed=0.122x    frame=  350 fps=7.5 q=44.0 size=    7546kB time=00:00:05.74 bitrate=10768.2kbits/s speed=0.123x    frame=  353 fps=7.4 q=44.0 size=    7546kB time=00:00:05.80 bitrate=10656.8kbits/s speed=0.122x    frame=  357 fps=7.4 q=44.0 size=    7546kB time=00:00:05.88 bitrate=10511.9kbits/s speed=0.123x    frame=  361 fps=7.4 q=44.0 size=    7546kB time=00:00:05.96 bitrate=10370.8kbits/s speed=0.123x    frame=  365 fps=7.4 q=44.0 size=    7546kB time=00:00:06.04 bitrate=10233.5kbits/s speed=0.123x    frame=  369 fps=7.4 q=44.0 size=    7546kB time=00:00:06.12 bitrate=10099.7kbits/s speed=0.123x    frame=  373 fps=7.4 q=44.0 size=    7546kB time=00:00:06.20 bitrate=9969.4kbits/s speed=0.124x    frame=  377 fps=7.4 q=44.0 size=    7546kB time=00:00:06.28 bitrate=9842.4kbits/s speed=0.124x    frame=  381 fps=7.4 q=44.0 size=    7546kB time=00:00:06.36 bitrate=9718.6kbits/s speed=0.124x    frame=  385 fps=7.4 q=44.0 size=    7546kB time=00:00:06.44 bitrate=9597.9kbits/s speed=0.124x    frame=  389 fps=7.4 q=44.0 size=    7546kB time=00:00:06.52 bitrate=9480.2kbits/s speed=0.124x    frame=  393 fps=7.4 q=44.0 size=    7546kB time=00:00:06.60 bitrate=9365.3kbits/s speed=0.125x    frame=  397 fps=7.4 q=44.0 size=    7546kB time=00:00:06.68 bitrate=9253.1kbits/s speed=0.124x    frame=  404 fps=7.4 q=44.0 size=    7546kB time=00:00:06.82 bitrate=9063.2kbits/s speed=0.126x    frame=  405 fps=7.4 q=44.0 size=    7546kB time=00:00:06.84 bitrate=9036.7kbits/s speed=0.125x    frame=  410 fps=7.4 q=44.0 size=    7546kB time=00:00:06.94 bitrate=8906.5kbits/s speed=0.125x    frame=  413 fps=7.4 q=44.0 size=    7546kB time=00:00:07.00 bitrate=8830.2kbits/s speed=0.125x    frame=  419 fps=7.4 q=44.0 size=    7546kB time=00:00:07.12 bitrate=8681.4kbits/s speed=0.126x    frame=  422 fps=7.4 q=44.0 size=    7546kB time=00:00:07.18 bitrate=8608.9kbits/s speed=0.126x    frame=  426 fps=7.4 q=44.0 size=    7546kB time=00:00:07.26 bitrate=8514.0kbits/s speed=0.126x    frame=  431 fps=7.4 q=44.0 size=    7546kB time=00:00:07.36 bitrate=8398.4kbits/s speed=0.126x    frame=  434 fps=7.4 q=44.0 size=    7546kB time=00:00:07.42 bitrate=8330.5kbits/s speed=0.126x    frame=  438 fps=7.4 q=44.0 size=    7546kB time=00:00:07.50 bitrate=8241.6kbits/s speed=0.126x    frame=  441 fps=7.4 q=44.0 size=    7546kB time=00:00:07.56 bitrate=8176.2kbits/s speed=0.126x    frame=  446 fps=7.3 q=44.0 size=    7546kB time=00:00:07.66 bitrate=8069.5kbits/s speed=0.126x    frame=  451 fps=7.4 q=44.0 size=    7546kB time=00:00:07.76 bitrate=7965.5kbits/s speed=0.127x    frame=  454 fps=7.4 q=44.0 size=    7546kB time=00:00:07.82 bitrate=7904.4kbits/s speed=0.127x    frame=  458 fps=7.3 q=44.0 size=    7546kB time=00:00:07.90 bitrate=7824.4kbits/s speed=0.127x    frame=  462 fps=7.3 q=44.0 size=    7546kB time=00:00:07.98 bitrate=7745.9kbits/s speed=0.127x    frame=  466 fps=7.3 q=44.0 size=    7546kB time=00:00:08.06 bitrate=7669.1kbits/s speed=0.127x    frame=  469 fps=7.3 q=44.0 size=    7546kB time=00:00:08.12 bitrate=7612.4kbits/s speed=0.127x    frame=  475 fps=7.4 q=44.0 size=    7546kB time=00:00:08.24 bitrate=7501.6kbits/s speed=0.128x    frame=  477 fps=7.3 q=44.0 size=    7546kB time=00:00:08.28 bitrate=7465.3kbits/s speed=0.127x    frame=  482 fps=7.3 q=44.0 size=    7546kB time=00:00:08.38 bitrate=7376.2kbits/s speed=0.128x    frame=  485 fps=7.3 q=44.0 size=    7546kB time=00:00:08.44 bitrate=7323.8kbits/s speed=0.128x    frame=  489 fps=7.3 q=44.0 size=    7546kB time=00:00:08.52 bitrate=7255.0kbits/s speed=0.128x    frame=  494 fps=7.3 q=44.0 size=   12670kB time=00:00:08.62 bitrate=12039.1kbits/s speed=0.128x    frame=  497 fps=7.3 q=44.0 size=   12670kB time=00:00:08.68 bitrate=11955.9kbits/s speed=0.128x    frame=  500 fps=6.6 q=-1.0 Lsize=   14602kB time=00:00:09.94 bitrate=12032.7kbits/s speed=0.132x    
video:14597kB audio:0kB subtitle:0kB other streams:0kB global headers:0kB muxing overhead: 0.030901%
bench: utime=266.388s
bench: maxrss=2150984kB
[libx264 @ 0x45d71c0] frame I:2     Avg QP:33.58  size:458670
[libx264 @ 0x45d71c0] frame P:126   Avg QP:42.93  size: 58185
[libx264 @ 0x45d71c0] frame B:372   Avg QP:46.00  size: 18006
[libx264 @ 0x45d71c0] consecutive B-frames:  0.8%  0.0%  0.0% 99.2%
[libx264 @ 0x45d71c0] mb I  I16..4: 17.6% 73.7%  8.8%
[libx264 @ 0x45d71c0] mb P  I16..4:  2.2%  4.0%  0.0%  P16..4: 35.1%  5.5%  5.1%  0.0%  0.0%    skip:48.1%
[libx264 @ 0x45d71c0] mb B  I16..4:  0.0%  0.1%  0.0%  B16..8: 40.7%  1.4%  0.1%  direct: 0.3%  skip:57.5%  L0:41.8% L1:57.6% BI: 0.6%
[libx264 @ 0x45d71c0] final ratefactor: 35.60
[libx264 @ 0x45d71c0] 8x8 transform intra:66.5% inter:87.8%
[libx264 @ 0x45d71c0] direct mvs  spatial:98.9% temporal:1.1%
[libx264 @ 0x45d71c0] coded y,uvDC,uvAC intra: 34.5% 52.2% 18.5% inter: 2.9% 5.5% 0.1%
[libx264 @ 0x45d71c0] i16 v,h,dc,p: 36% 21%  7% 36%
[libx264 @ 0x45d71c0] i8 v,h,dc,ddl,ddr,vr,hd,vl,hu:  8%  4%  6% 12% 16% 15% 15% 13% 11%
[libx264 @ 0x45d71c0] i4 v,h,dc,ddl,ddr,vr,hd,vl,hu:  6%  3%  1% 14% 17% 15% 16% 12% 15%
[libx264 @ 0x45d71c0] i8c dc,h,v,p: 49% 17% 17% 16%
[libx264 @ 0x45d71c0] Weighted P-Frames: Y:1.6% UV:0.8%
[libx264 @ 0x45d71c0] ref P L0: 66.6%  6.9% 16.2%  5.0%  5.3%  0.1%
[libx264 @ 0x45d71c0] ref B L0: 92.4%  5.8%  1.4%  0.5%
[libx264 @ 0x45d71c0] ref B L1: 98.4%  1.6%
[libx264 @ 0x45d71c0] kb/s:11957.45
